<?xml version="1.0" standalone="no"?>
<!DOCTYPE svg PUBLIC "-//W3C//DTD SVG 20010904//EN"
 "http://www.w3.org/TR/2001/REC-SVG-20010904/DTD/svg10.dtd">
<svg version="1.0" xmlns="http://www.w3.org/2000/svg"
 width="260.000000pt" height="260.000000pt" viewBox="0 0 260.000000 260.000000"
 preserveAspectRatio="xMidYMid meet">
<metadata>
Created by potrace 1.14, written by Peter Selinger 2001-2017
</metadata>
<g transform="translate(0.000000,260.000000) scale(0.100000,-0.100000)"
fill="#000000" stroke="none">
<path d="M0 1300 l0 -1300 1300 0 1300 0 0 1300 0 1300 -1300 0 -1300 0 0
-1300z m780 315 l0 -65 -215 0 -215 0 0 -70 0 -70 43 7 c73 14 208 8 272 -11
185 -55 235 -279 86 -393 -106 -82 -335 -95 -525 -32 -33 11 -64 24 -68 27 -4
4 8 31 25 60 26 43 36 52 52 47 107 -33 141 -38 230 -39 116 -1 164 13 201 57
52 62 12 134 -90 158 -59 14 -228 7 -303 -14 -29 -8 -55 -12 -58 -9 -3 3 -5
97 -5 209 l0 203 285 0 285 0 0 -65z m800 0 l0 -65 -215 0 -215 0 0 -70 0 -70
43 7 c23 5 85 7 137 7 150 -2 238 -44 284 -135 68 -137 -1 -277 -162 -326 -41
-13 -90 -18 -177 -18 -123 0 -194 12 -277 47 l-47 20 31 51 c18 29 32 53 34
55 1 2 35 -7 75 -19 144 -44 342 -26 384 34 41 58 -1 134 -86 157 -55 15 -243
7 -316 -13 l-53 -15 0 209 0 209 280 0 280 0 0 -65z m800 0 l0 -65 -210 0
-210 0 0 -70 0 -70 28 7 c54 15 224 9 279 -10 114 -40 173 -114 173 -218 -1
-146 -114 -234 -315 -246 -49 -3 -123 0 -163 6 -76 12 -179 44 -195 60 -13 13
46 107 64 104 8 0 43 -9 79 -19 139 -38 325 -18 365 39 41 58 -1 134 -86 157
-55 15 -243 7 -316 -13 l-53 -15 0 209 0 209 280 0 280 0 0 -65z"/>
</g>
</svg>
